# xmcd
#
# Track frame offsets:
#	150
#	23223
#	51457
#	83290
#	109198
#
# Disc length: 1991 seconds
#
# Revision: 1
# Processed by: cddbd v1.5.1PL0 Copyright (c) Steve Scherf et al.
# Submitted via: CDex 1.50Beta5
#
DISCID=3407c505
DTITLE=Eico - 風花
DYEAR=2003
DGENRE=Pop
TTITLE0=カザハナ
TTITLE1=Emerald
TTITLE2=眠りの森
TTITLE3=眠りの森 Sunaga T Experience Remix
TTITLE4=桃色 Too Rooms House Mix
EXTD=
EXTT0=
EXTT1=
EXTT2=
EXTT3=
EXTT4=
PLAYORDER=
